G04 #@! TF.FileFunction,Copper,L1,Top,Signal*
%FSLAX46Y46*%
G04 Gerber Fmt 4.6, Leading zero omitted, Abs format (unit mm)*
G04 Created by KiCad (PCBNEW 4.0.1-stable) date 01-Jul-17 2:59:39 PM*
%MOMM*%
G01*
G04 APERTURE LIST*
%ADD10C,0.100000*%
%ADD11C,8.000000*%
%ADD12R,1.600000X2.000000*%
%ADD13R,2.000000X1.600000*%
%ADD14R,3.000000X1.200000*%
%ADD15R,2.500000X2.000000*%
%ADD16R,2.235200X2.235200*%
%ADD17R,0.950000X3.000000*%
%ADD18R,3.250000X3.150000*%
%ADD19R,2.000000X0.600000*%
%ADD20R,2.300000X0.900000*%
%ADD21R,6.096000X7.112000*%
%ADD22C,17.780000*%
%ADD23R,0.650000X1.970000*%
%ADD24R,3.000000X1.400000*%
%ADD25C,0.400000*%
G04 APERTURE END LIST*
D10*
D11*
X32100000Y5400000D03*
D12*
X96400000Y26300000D03*
X96400000Y22900000D03*
X96450000Y17870000D03*
X96450000Y14470000D03*
X87700000Y17870000D03*
X87700000Y14470000D03*
D13*
X62550000Y12170000D03*
X65950000Y12170000D03*
D12*
X85300000Y14470000D03*
X85300000Y17870000D03*
D14*
X56200000Y30720000D03*
X56200000Y28720000D03*
X56200000Y26720000D03*
X56200000Y24720000D03*
X56200000Y22720000D03*
X56200000Y20720000D03*
X56200000Y18720000D03*
X56200000Y16720000D03*
X72200000Y16720000D03*
X72200000Y18720000D03*
X72200000Y22720000D03*
X72200000Y24720000D03*
X72200000Y26720000D03*
X72200000Y28720000D03*
X72200000Y30720000D03*
X72200000Y20720000D03*
D15*
X103200000Y19920000D03*
X103200000Y22460000D03*
D16*
X102950000Y28620000D03*
D15*
X77050000Y29520000D03*
X77050000Y26980000D03*
X77050000Y24440000D03*
D12*
X52200000Y30120000D03*
X52200000Y26720000D03*
X79250000Y17870000D03*
X79250000Y14470000D03*
D13*
X96700000Y9900000D03*
X93300000Y9900000D03*
D12*
X82200000Y25800000D03*
X82200000Y29200000D03*
X50050000Y16120000D03*
X50050000Y19520000D03*
X52400000Y16120000D03*
X52400000Y19520000D03*
X81600000Y14470000D03*
X81600000Y17870000D03*
D17*
X89800000Y14970000D03*
X92100000Y14970000D03*
X94400000Y14970000D03*
D18*
X92100000Y21695000D03*
D19*
X37100000Y29635000D03*
X37100000Y28365000D03*
X37100000Y27095000D03*
X37100000Y25825000D03*
X37100000Y24555000D03*
X37100000Y23285000D03*
X37100000Y22015000D03*
X37100000Y20745000D03*
X37100000Y19475000D03*
X37100000Y18205000D03*
X46400000Y18205000D03*
X46400000Y19475000D03*
X46400000Y20745000D03*
X46400000Y22015000D03*
X46400000Y23285000D03*
X46400000Y24555000D03*
X46400000Y25825000D03*
X46400000Y27095000D03*
X46400000Y28365000D03*
X46400000Y29635000D03*
D20*
X91850000Y26250000D03*
X91850000Y29550000D03*
X86150000Y26250000D03*
X86150000Y29550000D03*
D21*
X3811000Y21320000D03*
D22*
X17400000Y21320000D03*
D21*
X30989000Y21320000D03*
D11*
X82100000Y5400000D03*
D23*
X99100000Y22860000D03*
X99100000Y26340000D03*
D24*
X100000000Y2570000D03*
X90000000Y2570000D03*
X100000000Y7030000D03*
X90000000Y7030000D03*
D25*
X44735000Y24555000D02*
X46400000Y24555000D01*
X42400000Y22220000D02*
X44735000Y24555000D01*
X42400000Y20270000D02*
X42400000Y22220000D01*
X39434999Y17304999D02*
X42400000Y20270000D01*
X34496001Y17304999D02*
X39434999Y17304999D01*
X30989000Y20812000D02*
X34496001Y17304999D01*
X30989000Y21320000D02*
X30989000Y20812000D01*
X3811000Y21320000D02*
X3811000Y29681000D01*
X3811000Y29681000D02*
X6400000Y32270000D01*
X6400000Y32270000D02*
X26300000Y32270000D01*
X30989000Y27581000D02*
X30989000Y21320000D01*
X26300000Y32270000D02*
X30989000Y27581000D01*
X89800000Y14970000D02*
X89800000Y16870000D01*
X89800000Y16870000D02*
X91200000Y18270000D01*
X91200000Y18270000D02*
X93170000Y18270000D01*
X93170000Y18270000D02*
X96400000Y21500000D01*
X96400000Y21500000D02*
X96400000Y22900000D01*
X50168946Y11070000D02*
X59650000Y11070000D01*
X59650000Y11070000D02*
X62550000Y8170000D01*
X62550000Y8170000D02*
X69900000Y8170000D01*
X97950000Y2570000D02*
X100000000Y2570000D01*
X69900000Y8170000D02*
X71900000Y10170000D01*
X71900000Y10170000D02*
X87750000Y10170000D01*
X87750000Y10170000D02*
X89250000Y8670000D01*
X89250000Y8670000D02*
X91850000Y8670000D01*
X91850000Y8670000D02*
X97950000Y2570000D01*
X100000000Y2570000D02*
X101650000Y2570000D01*
X101650000Y2570000D02*
X102900000Y3820000D01*
X102900000Y3820000D02*
X102900000Y12900000D01*
X102869999Y12869999D02*
X102900000Y12900000D01*
X102900000Y12900000D02*
X102900000Y13258225D01*
X96249999Y12869999D02*
X102869999Y12869999D01*
X102900000Y13258225D02*
X102900000Y14919132D01*
X80200000Y22940000D02*
X80200000Y24440000D01*
X80200000Y24440000D02*
X77050000Y24440000D01*
X83500021Y19639979D02*
X80200000Y22940000D01*
X80200000Y26799998D02*
X80200000Y22940000D01*
X80870002Y27470000D02*
X80200000Y26799998D01*
X83500021Y16519979D02*
X83500021Y19639979D01*
X86150000Y29550000D02*
X84830000Y29550000D01*
X84830000Y29550000D02*
X84350000Y29070000D01*
X84350000Y29070000D02*
X84350000Y28469998D01*
X84350000Y28469998D02*
X83350002Y27470000D01*
X83350002Y27470000D02*
X80870002Y27470000D01*
X77840002Y24440000D02*
X77050000Y24440000D01*
X87700000Y14470000D02*
X87700000Y15770000D01*
X87700000Y15770000D02*
X87250000Y16220000D01*
X87250000Y16220000D02*
X83800000Y16220000D01*
X83800000Y16220000D02*
X83500021Y16519979D01*
X102900000Y14470000D02*
X102900000Y14919132D01*
X102900000Y14919132D02*
X102900000Y19720000D01*
X96450000Y14470000D02*
X96300000Y14320000D01*
X96300000Y14320000D02*
X96300000Y12920000D01*
X96300000Y12920000D02*
X96249999Y12869999D01*
X79250000Y14270000D02*
X79250000Y14470000D01*
X79250000Y14670000D02*
X79250000Y14470000D01*
X87699999Y12869999D02*
X87370766Y12869999D01*
X87700000Y14470000D02*
X87699999Y12869999D01*
X71300000Y16720000D02*
X72200000Y16720000D01*
X72200000Y16720000D02*
X73100000Y16720000D01*
X79250000Y13070000D02*
X79250000Y14470000D01*
X79450001Y12869999D02*
X79250000Y13070000D01*
X87370766Y12869999D02*
X79450001Y12869999D01*
X79250000Y14470000D02*
X73450000Y14470000D01*
X72200000Y14470000D02*
X72200000Y16720000D01*
X73450000Y14470000D02*
X72200000Y14470000D01*
X89800000Y12911799D02*
X89758200Y12869999D01*
X89800000Y14970000D02*
X89800000Y12911799D01*
X89758200Y12869999D02*
X87370766Y12869999D01*
X94106197Y12869999D02*
X89758200Y12869999D01*
X96249999Y12869999D02*
X94106197Y12869999D01*
X94850000Y12869999D02*
X94106197Y12869999D01*
X70450000Y14470000D02*
X72200000Y14470000D01*
X68150000Y12170000D02*
X70450000Y14470000D01*
X65950000Y12170000D02*
X68150000Y12170000D01*
X103100000Y19920000D02*
X103200000Y19920000D01*
X102900000Y19720000D02*
X103100000Y19920000D01*
X17400000Y19120000D02*
X25450000Y11070000D01*
X17400000Y21320000D02*
X17400000Y19120000D01*
X25450000Y11070000D02*
X50168946Y11070000D01*
X48300000Y11070000D02*
X50168946Y11070000D01*
X48300000Y22785000D02*
X48300000Y11070000D01*
X47800000Y23285000D02*
X48300000Y22785000D01*
X46400000Y23285000D02*
X47800000Y23285000D01*
X100290000Y21200000D02*
X99100000Y21200000D01*
X99100000Y21200000D02*
X98530000Y21200000D01*
X99100000Y22860000D02*
X99100000Y21475000D01*
X99100000Y21475000D02*
X99100000Y21200000D01*
X98530000Y21200000D02*
X96450000Y19120000D01*
X103200000Y22460000D02*
X101550000Y22460000D01*
X101550000Y22460000D02*
X100290000Y21200000D01*
X96450000Y19120000D02*
X96450000Y17870000D01*
X103200000Y22460000D02*
X103060000Y22320000D01*
X94400000Y16870000D02*
X94400000Y14970000D01*
X94400000Y17020000D02*
X94400000Y16870000D01*
X95250000Y17870000D02*
X94400000Y17020000D01*
X96450000Y17870000D02*
X95250000Y17870000D01*
X103200000Y22570000D02*
X103200000Y22460000D01*
X70519998Y32220000D02*
X87500000Y32220000D01*
X87500000Y32220000D02*
X89050000Y30670000D01*
X89050000Y30670000D02*
X89050000Y24695000D01*
X89050000Y24695000D02*
X92050000Y21695000D01*
X92050000Y21695000D02*
X92100000Y21695000D01*
X93300000Y9900000D02*
X90320000Y9900000D01*
X90320000Y9900000D02*
X89150000Y11070000D01*
X89150000Y11070000D02*
X71250000Y11070000D01*
X71250000Y11070000D02*
X69450000Y9270000D01*
X69450000Y9270000D02*
X64000000Y9270000D01*
X64000000Y9270000D02*
X62550000Y10720000D01*
X62550000Y10720000D02*
X62550000Y12170000D01*
X85300000Y17870000D02*
X87700000Y17870000D01*
X92150000Y21695000D02*
X92100000Y21695000D01*
X91325000Y21695000D02*
X92100000Y21695000D01*
X87700000Y18070000D02*
X91325000Y21695000D01*
X87700000Y17870000D02*
X87700000Y18070000D01*
X52200000Y29920000D02*
X52200000Y30120000D01*
X51900000Y30220000D02*
X52200000Y29920000D01*
X52600000Y15920000D02*
X52400000Y16120000D01*
X50050000Y16120000D02*
X52400000Y16120000D01*
X56200000Y16720000D02*
X57100000Y16720000D01*
X56100000Y16620000D02*
X56200000Y16720000D01*
X52900000Y16620000D02*
X56100000Y16620000D01*
X52400000Y16120000D02*
X52900000Y16620000D01*
X70519998Y32220000D02*
X54100000Y32220000D01*
X38500000Y25825000D02*
X37100000Y25825000D01*
X44895000Y32220000D02*
X38500000Y25825000D01*
X54100000Y32220000D02*
X44895000Y32220000D01*
X52200000Y32220000D02*
X52200000Y30120000D01*
X54100000Y32220000D02*
X52200000Y32220000D01*
X62550000Y13370000D02*
X62550000Y12170000D01*
X62550000Y32220000D02*
X62550000Y13370000D01*
X70519998Y32220000D02*
X62550000Y32220000D01*
X56200000Y15720000D02*
X56200000Y16720000D01*
X59750000Y12170000D02*
X56200000Y15720000D01*
X62550000Y12170000D02*
X59750000Y12170000D01*
X56200000Y26720000D02*
X54300000Y26720000D01*
X53961380Y30381380D02*
X53961380Y26720000D01*
X54300000Y30720000D02*
X53961380Y30381380D01*
X56200000Y30720000D02*
X54300000Y30720000D01*
X53961380Y26720000D02*
X52200000Y26720000D01*
X54300000Y26720000D02*
X53961380Y26720000D01*
X55800000Y20320000D02*
X56200000Y20720000D01*
X52400000Y20920000D02*
X52400000Y19520000D01*
X52400000Y22495000D02*
X52400000Y20920000D01*
X47800000Y27095000D02*
X52400000Y22495000D01*
X46400000Y27095000D02*
X47800000Y27095000D01*
X53600000Y20720000D02*
X52400000Y19520000D01*
X56200000Y20720000D02*
X53600000Y20720000D01*
X56200000Y18720000D02*
X54450000Y18720000D01*
X54450000Y18720000D02*
X53649999Y17919999D01*
X53649999Y17919999D02*
X50250001Y17919999D01*
X50250001Y17919999D02*
X50050000Y18120000D01*
X50050000Y18120000D02*
X50050000Y19520000D01*
X56200000Y18720000D02*
X54980002Y18720000D01*
X55000000Y18620000D02*
X54950000Y18670000D01*
X55100000Y18720000D02*
X55000000Y18620000D01*
X56200000Y18720000D02*
X55100000Y18720000D01*
X50050000Y20920000D02*
X50050000Y19520000D01*
X50050000Y23575000D02*
X50050000Y20920000D01*
X47800000Y25825000D02*
X50050000Y23575000D01*
X46400000Y25825000D02*
X47800000Y25825000D01*
X79050000Y18070000D02*
X79250000Y17870000D01*
X78400000Y18720000D02*
X79250000Y17870000D01*
X72200000Y18720000D02*
X78400000Y18720000D01*
X72200000Y22720000D02*
X70300000Y22720000D01*
X70300000Y22720000D02*
X64250000Y16670000D01*
X64250000Y16670000D02*
X64250000Y10989998D01*
X98850000Y11070000D02*
X98850000Y9870000D01*
X64250000Y10989998D02*
X65019998Y10220000D01*
X70750000Y11970000D02*
X97950000Y11970000D01*
X65019998Y10220000D02*
X69000000Y10220000D01*
X69000000Y10220000D02*
X70750000Y11970000D01*
X97950000Y11970000D02*
X98850000Y11070000D01*
X96700000Y9900000D02*
X96900000Y9900000D01*
X96900000Y9900000D02*
X96930000Y9870000D01*
X96930000Y9870000D02*
X98850000Y9870000D01*
X98850000Y9870000D02*
X100000000Y8720000D01*
X100000000Y8720000D02*
X100000000Y7030000D01*
X77050000Y26980000D02*
X78460000Y26980000D01*
X78460000Y26980000D02*
X80680000Y29200000D01*
X80680000Y29200000D02*
X82200000Y29200000D01*
X72200000Y28720000D02*
X74100000Y28720000D01*
X75850000Y26970000D02*
X77050000Y26970000D01*
X77050000Y26970000D02*
X77050000Y26980000D01*
X74100000Y28720000D02*
X75850000Y26970000D01*
X76259998Y26980000D02*
X77050000Y26980000D01*
X76650000Y29920000D02*
X77050000Y29520000D01*
X74100000Y30720000D02*
X72200000Y30720000D01*
X74200000Y30720000D02*
X74100000Y30720000D01*
X75400000Y29520000D02*
X74200000Y30720000D01*
X77050000Y29520000D02*
X75400000Y29520000D01*
X72200000Y20720000D02*
X80150000Y20720000D01*
X80150000Y20720000D02*
X81600000Y19270000D01*
X81600000Y19270000D02*
X81600000Y17870000D01*
X91850000Y29550000D02*
X91930000Y29470000D01*
X91930000Y29470000D02*
X102100000Y29470000D01*
X102100000Y29470000D02*
X102950000Y28620000D01*
X102300000Y29270000D02*
X102950000Y28620000D01*
X82200000Y25800000D02*
X82570000Y26170000D01*
X82570000Y26170000D02*
X86070000Y26170000D01*
X86070000Y26170000D02*
X86150000Y26250000D01*
X81600000Y14470000D02*
X85300000Y14470000D01*
X85300000Y13989998D02*
X85300000Y14470000D01*
X72200000Y24720000D02*
X73400000Y24720000D01*
X94570000Y28270000D02*
X96400000Y28270000D01*
X96400000Y28270000D02*
X98750000Y28270000D01*
X96400000Y26300000D02*
X96400000Y28270000D01*
X98750000Y28270000D02*
X99100000Y27920000D01*
X99100000Y27920000D02*
X99100000Y26340000D01*
X91850000Y26250000D02*
X92550000Y26250000D01*
X92550000Y26250000D02*
X94570000Y28270000D01*
M02*
